<svg id="Layer_2" data-name="Layer 2" xmlns="http://www.w3.org/2000/svg" viewBox="0 0 636.18 489.27"><path d="M232.41,518.78c-.92-8.95-6.31-13.29-17.36-13.29-10.26,0-15.65,3.69-15.65,10.26,0,5.52,3.81,8.68,13.55,11s19.46,4.73,25.9,7.63c7.63,3.42,13.68,8.81,13.68,21.17,0,19.2-14.46,27.75-34.85,27.75-21.57,0-36.56-9.6-37-29.2h17.62c.26,9,7.76,14.47,19.46,14.47,10.79,0,17-4.6,17-12.36,0-5.13-2.63-8.68-13.55-11s-17.75-4-23.93-6.71c-9.34-4.21-14.6-10.52-14.6-21.57,0-15.65,10.65-26.82,32-26.82,22.09,0,34.45,12,35.11,28.67Z" transform="translate(-180.73 -255.36)"/><path d="M294.09,537.71H310v18.42c0,13.67-7.89,25.91-26.17,25.91-18.94,0-26.43-12.1-26.43-26V498.13h16.83v17.49H310v12.1H274.23v26.57c0,8.15,2.89,12.88,9.86,12.88s10-4.6,10-12.62Z" transform="translate(-180.73 -255.36)"/><path d="M317,580.33V515.62h16v7.76c5.65-8.68,12.23-9.47,19.2-9.47h2.23V531.4a29,29,0,0,0-4.73-.39c-10.52,0-15.65,5.26-15.65,15.65v33.67Z" transform="translate(-180.73 -255.36)"/><path d="M370.89,552.44c.53,9.74,6.05,16,14.47,16,5.52,0,10.39-2.76,11.57-7.23h17.62C410.61,574.54,400,582,386.15,582c-21.57,0-32.36-11.84-32.36-35.25,0-20,11.45-32.88,31.3-32.88s30.38,12.89,30.38,38.53Zm27-10.78c-.26-9.6-6.57-14.2-13.28-14.2s-12.5,5.26-13.15,14.2Z" transform="translate(-180.73 -255.36)"/><path d="M800.21,580.33v-39.2c0-7.76-4.08-13.28-10.13-13.28-6.31,0-10.92,5.92-10.92,13.81v38.67H762.07V541.4c0-10.39-2.77-13-10.26-13-6.84,0-10.39,4.2-10.39,12.62v39.33h-17.1V515.62h16v9.47c4.34-8.55,10.39-11.18,18.93-11.18,8.82,0,13,2.76,18,10.26,3.55-7.1,9.34-10.26,17.49-10.26,13,0,22.1,9.47,22.1,21.57v44.85Z" transform="translate(-180.73 -255.36)"/><path d="M495.68,584.72l-6.14-20H453.72l-6.87,20H425.36L460,487.64h23.54l34.21,97.08Zm-24.12-75.29h-.15L459,548h24.71Z" transform="translate(-180.73 -255.36)"/><path d="M589.69,584.72l-6.14-20H547.73l-6.87,20h-21.5L554,487.64h23.53l34.22,97.08Zm-24.12-75.29h-.15L553,548H577.7Z" transform="translate(-180.73 -255.36)"/><path d="M683.7,584.72l-6.14-20H641.74l-6.88,20H613.37L648,487.64h23.54l34.22,97.08Zm-24.13-75.29h-.14L647,548h24.71Z" transform="translate(-180.73 -255.36)"/><rect x="76.66" y="196.81" width="17.36" height="70.95"/><path d="M724.32,461.85h17.13c0-275.31-484.06-275.31-484.06,0h17.36C284.32,223.68,714.74,223.68,724.32,461.85Z" transform="translate(-180.73 -255.36)"/><rect x="543.6" y="203.41" width="17.13" height="121.55"/><path d="M274.75,606.4a13.51,13.51,0,0,0-16.41-13.19,77.38,77.38,0,0,0,0,151.1,13.5,13.5,0,0,0,16.41-13.18Z" transform="translate(-180.73 -255.36)"/><path d="M724.32,606.4a13.51,13.51,0,0,1,16.41-13.19,77.38,77.38,0,0,1,0,151.1,13.5,13.5,0,0,1-16.41-13.18Z" transform="translate(-180.73 -255.36)"/><rect x="244.63" y="342.5" width="280.42" height="8.97"/><path d="M716.61,689.28c-10,0-10-50-20.06-50s-10,50-20.06,50-10-50-20.06-50-10,50-20.06,50-10-50-20.06-50-10,50-20.06,50-10-50-20-50-10,50-20.06,50-10-50-20-50-10,50-20.06,50c-8,0-9.63-32.06-15.1-44.84a1,1,0,0,0-1.86,0c-5.47,12.78-7.07,44.84-15.1,44.84-10,0-10-50-20.06-50s-10,50-20.05,50-10-50-20.06-50-10,50-20.05,50-10-50-20.06-50-10,50-20.06,50-10-50-20.06-50-10,50-20.06,50-10-50-20.06-50-10,50-20.06,50a2.85,2.85,0,0,1-.29,0v8.59l.37.41c9.94-.3,10-50,20-50s10,50,20.05,50,10-50,20.06-50,10,50,20.05,50,10-50,20.06-50,10,50,20.06,50,10-50,20.06-50,10,50,20.06,50,10-50,20.05-50,10,50,20.06,50c8.34,0,9.75-34.48,15.73-46.17a.35.35,0,0,1,.64,0c6,11.69,7.39,46.17,15.73,46.17,10,0,10-50,20.06-50s10,50,20,50,10-50,20.06-50,10,50,20.06,50,10-50,20.06-50,10,50,20.06,50,10-50,20.05-50,10,50,20.06,50,10-50,20-50,10,49.7,20,50l.37-.41v-8.59A2.85,2.85,0,0,1,716.61,689.28Z" transform="translate(-180.73 -255.36)"/></svg>